<svg version="1.1" id="Layer_1" xmlns="http://www.w3.org/2000/svg" xmlns:xlink="http://www.w3.org/1999/xlink" x="0px" y="0px"
	 width="100%" viewBox="0 0 1232 647" enable-background="new 0 0 1232 647" xml:space="preserve">
<path fill="#FFFEFF" opacity="1.000000" stroke="none" 
	d="
M1.000000,279.000000 
	C1.000000,186.354523 1.000000,93.709030 1.000000,1.031773 
	C411.551605,1.031773 822.103210,1.031773 1233.000000,1.031773 
	C1233.000000,113.358925 1233.000000,225.718201 1232.633301,338.382141 
	C1230.424561,324.762573 1225.009155,312.498047 1215.411133,302.139008 
	C1195.010132,280.120575 1160.372681,276.192017 1138.373047,293.685516 
	C1126.317627,303.271667 1128.372803,303.713043 1115.807007,293.598816 
	C1095.488159,277.243988 1059.264526,277.188385 1042.623535,306.470367 
	C1041.986572,307.591156 1040.951538,308.485779 1040.102051,309.485809 
	C1039.643555,309.318207 1039.185181,309.150604 1038.726685,308.983002 
	C1038.726685,303.407288 1038.761597,297.831329 1038.717529,292.255951 
	C1038.666504,285.793365 1036.813843,283.910004 1030.375366,283.888794 
	C1019.211731,283.851990 1008.047668,283.856476 996.884155,283.910889 
	C990.576355,283.941620 988.885437,285.643555 988.883240,291.924927 
	C988.866577,340.912262 988.863892,389.899628 988.881104,438.886963 
	C988.883179,444.959900 990.540710,446.599945 996.590027,446.619843 
	C1007.087158,446.654327 1017.584534,446.627563 1028.081787,446.629150 
	C1037.862305,446.630646 1038.747437,445.766357 1038.745728,436.188934 
	C1038.741089,410.029053 1039.409912,383.845917 1038.509399,357.716888 
	C1037.833374,338.102966 1047.376343,330.836578 1064.401367,331.820923 
	C1078.213867,332.619507 1085.677002,339.330383 1085.720337,353.210144 
	C1085.809937,381.865692 1085.881714,410.521271 1085.982544,439.176758 
	C1086.003296,445.083069 1087.458496,446.585419 1093.374146,446.614990 
	C1104.370972,446.669922 1115.368286,446.624634 1126.365479,446.615479 
	C1134.482666,446.608734 1135.505005,445.568451 1135.506348,437.325043 
	C1135.510864,408.832397 1135.490112,380.339752 1135.527466,351.847137 
	C1135.542725,340.149872 1143.291260,332.184601 1154.714478,331.999512 
	C1157.546387,331.953613 1160.379761,331.971466 1163.212158,331.997345 
	C1174.571167,332.101166 1182.418823,339.715118 1182.657715,351.014923 
	C1182.840698,359.671875 1182.905029,368.332458 1182.920532,376.991608 
	C1182.957886,397.819489 1182.915283,418.647522 1182.950928,439.475403 
	C1182.960083,444.831604 1184.540405,446.562134 1189.634644,446.596497 
	C1201.797729,446.678558 1213.965820,446.790405 1226.120972,446.472504 
	C1228.140869,446.419678 1230.105591,444.260712 1232.321655,443.054749 
	C1232.547607,443.034454 1233.000000,443.000000 1233.000000,443.000000 
	C1233.000000,511.315857 1233.000000,579.631714 1233.000000,647.973755 
	C822.455933,647.973755 411.911804,647.973755 1.000000,647.973755 
	C1.000000,576.641235 1.000000,505.281891 1.227947,433.477417 
	C1.455894,433.032318 1.907033,433.105530 1.947890,433.469482 
	C3.992204,437.223358 5.446691,441.138031 8.096479,443.910095 
	C18.220488,454.501282 28.740313,464.713654 39.085815,475.093903 
	C41.404850,477.420746 43.750797,479.500824 47.379536,478.076111 
	C51.097843,476.616180 51.091072,473.464233 51.085381,470.185364 
	C51.045486,447.198547 51.058704,424.211670 51.068665,401.224792 
	C51.071808,393.970093 52.590862,392.448517 59.860626,392.441467 
	C77.184052,392.424744 94.508186,392.345764 111.830498,392.483917 
	C116.769051,392.523315 119.554977,390.456116 120.963783,385.802368 
	C124.001419,375.768066 127.257477,365.800079 130.368057,355.787537 
	C132.627045,348.516174 130.320465,345.378021 122.713165,345.370911 
	C101.558609,345.351105 80.404007,345.382050 59.249435,345.365753 
	C52.627949,345.360657 51.086224,343.775269 51.073586,337.052094 
	C51.054169,326.724701 51.058315,316.397217 51.071915,306.069794 
	C51.080795,299.323700 52.517147,297.868134 59.241699,297.864441 
	C86.559418,297.849365 113.877602,297.771027 141.194519,297.918610 
	C146.716568,297.948456 149.832138,295.843231 151.407974,290.524902 
	C154.340652,280.627258 157.674576,270.849182 160.765961,260.997650 
	C162.947342,254.046051 160.615555,250.986938 153.241180,250.986008 
	C113.430595,250.981018 73.619995,250.971542 33.809422,250.992188 
	C17.395777,251.000702 4.226608,262.523407 1.627718,278.852905 
	C1.408119,278.832794 1.000000,279.000000 1.000000,279.000000 
M795.201294,285.302612 
	C784.600647,274.700775 774.108887,263.985321 763.286865,253.614532 
	C761.580444,251.979279 758.039795,250.815384 755.981018,251.459442 
	C754.411438,251.950470 752.971985,255.644394 752.962036,257.919983 
	C752.784973,298.235931 752.852356,338.552917 752.825012,378.869659 
	C752.819397,387.139557 755.725952,394.231903 761.481079,400.030304 
	C779.905334,418.592957 798.417175,437.068817 816.935486,455.537842 
	C822.191162,460.779572 828.517456,464.133362 836.011902,464.217529 
	C851.488953,464.391357 866.974243,464.415741 882.447449,464.089172 
	C889.165833,463.947357 894.935486,460.753937 899.692017,456.014740 
	C918.219849,437.554565 936.694702,419.041107 955.208618,400.566925 
	C961.425476,394.363525 964.479553,386.973114 964.389404,378.131897 
	C964.245117,363.972473 964.239868,349.809601 964.375488,335.650116 
	C964.462036,326.613617 961.179077,319.207764 954.831543,312.872009 
	C916.394958,274.507080 878.014832,236.085632 839.615173,197.683746 
	C832.076294,190.144455 824.558777,182.583588 816.979492,175.085159 
	C814.557678,172.689148 812.407776,169.310333 808.175537,170.923279 
	C803.842163,172.574814 804.789917,176.498901 804.683472,179.912796 
	C804.678284,180.079239 804.682800,180.245972 804.682800,180.412567 
	C804.680847,216.064575 804.678894,251.716583 804.676941,287.368591 
	C804.676880,289.265717 804.677002,291.162872 804.677002,293.059998 
	C804.105896,293.344147 803.534790,293.628296 802.963684,293.912445 
	C800.542847,291.210175 798.122009,288.507904 795.201294,285.302612 
M562.038696,414.472260 
	C569.583862,427.934143 580.599609,437.442169 595.003540,442.865234 
	C609.280640,448.240509 624.164429,448.121796 638.864685,445.851776 
	C654.406067,443.451843 664.688354,433.004730 673.132629,419.929138 
	C674.034851,426.680481 674.015137,432.916595 674.040466,439.152496 
	C674.065430,445.284424 675.620605,446.885590 681.651184,446.900024 
	C692.980042,446.927124 704.308960,446.916962 715.637878,446.900177 
	C722.070129,446.890625 723.768433,445.150909 723.769165,438.506226 
	C723.776428,371.532379 723.749390,304.558502 723.813904,237.584717 
	C723.819275,232.059845 722.012817,227.609116 718.070740,223.769348 
	C711.031250,216.912582 704.149414,209.893951 697.202393,202.942352 
	C693.081055,198.818298 689.181396,194.429749 684.728699,190.701691 
	C683.021667,189.272491 679.723083,188.377060 677.762146,189.042633 
	C676.137939,189.593903 675.252686,192.728653 674.361389,194.853561 
	C673.945251,195.845566 674.287842,197.156158 674.287842,198.322372 
	C674.287354,227.977463 674.313110,257.632660 674.223999,287.287476 
	C674.218445,289.126953 673.847229,291.709900 672.654175,292.568390 
	C671.679199,293.270020 669.182434,292.031219 667.429260,291.446320 
	C660.692505,289.198822 654.121826,285.616058 647.232422,284.854675 
	C636.198059,283.635193 624.949463,283.892456 613.808777,284.186401 
	C584.969421,284.947388 558.421265,308.217468 555.218750,336.794830 
	C553.502747,352.107574 554.383484,367.711731 554.099609,383.184509 
	C553.899841,394.072021 556.508545,404.268921 562.038696,414.472260 
M330.974213,439.167877 
	C330.974243,390.031464 330.978546,340.895081 330.968903,291.758667 
	C330.967712,285.633301 329.457123,284.133820 323.297760,284.118195 
	C314.470032,284.095795 305.642120,284.134003 296.814331,284.121490 
	C281.461670,284.099731 280.927490,282.395996 281.222900,299.488739 
	C281.286377,303.160797 281.232178,306.834869 281.232178,310.508026 
	C280.624512,310.629120 280.016846,310.750214 279.409180,310.871307 
	C278.371979,309.290100 277.322052,307.717102 276.299530,306.126434 
	C268.267090,293.630920 257.071716,285.942352 242.175522,284.400970 
	C236.404434,283.803772 230.532562,284.137360 224.706406,284.122223 
	C191.537445,284.035889 163.888000,309.243896 161.887833,342.306183 
	C160.964600,357.567078 160.954865,372.975586 161.884232,388.234711 
	C163.299347,411.469116 175.184174,428.573395 195.495834,439.788818 
	C207.756409,446.558655 221.144852,447.016968 234.762222,447.008514 
	C253.627380,446.996765 267.673584,439.095917 277.378082,423.088959 
	C278.055634,421.971283 278.955566,420.988403 279.752106,419.942841 
	C280.244598,420.097565 280.737122,420.252289 281.229614,420.407013 
	C281.229614,426.801758 281.153015,433.197662 281.253265,439.590820 
	C281.336945,444.925079 283.274353,446.868286 288.484009,446.890137 
	C300.309753,446.939728 312.136078,446.858582 323.961761,446.915710 
	C328.649811,446.938354 331.240265,445.029877 330.974213,439.167877 
M415.923767,353.749634 
	C416.209564,340.752594 423.672821,333.315399 436.555237,333.238800 
	C442.887848,333.201172 449.220886,333.224121 455.553711,333.232910 
	C469.439240,333.252167 476.922943,340.698669 476.956360,354.477966 
	C477.024658,382.638702 477.099701,410.799408 477.192657,438.960052 
	C477.213226,445.182343 478.615021,446.588165 484.862885,446.608948 
	C496.195190,446.646637 507.527710,446.638092 518.860107,446.617981 
	C525.195251,446.606750 526.798401,445.022644 526.803101,438.626526 
	C526.825378,407.962280 526.923706,377.297546 526.783936,346.633942 
	C526.656982,318.800079 508.347595,294.256256 481.630463,286.728363 
	C457.048401,279.802063 432.668121,284.611053 419.257538,308.743164 
	C418.831726,309.509369 417.931641,310.012024 416.399994,311.423065 
	C416.183685,308.945801 415.948822,307.403015 415.932831,305.857941 
	C415.884430,301.192169 415.957489,296.525208 415.915375,291.859344 
	C415.860413,285.769257 414.261505,284.141266 408.223633,284.124420 
	C396.724640,284.092377 385.225433,284.102905 373.726440,284.132294 
	C367.807892,284.147400 366.046570,285.880341 366.043671,291.915863 
	C366.020111,340.911987 366.017456,389.908142 366.048401,438.904266 
	C366.052155,444.849121 367.909668,446.608398 373.861481,446.622345 
	C384.860565,446.648132 395.859711,446.627594 406.858856,446.627625 
	C414.596130,446.627625 415.918610,445.344086 415.921082,437.688873 
	C415.930054,410.024384 415.924591,382.359924 415.923767,353.749634 
z"/>
<path fill="#520244" opacity="1.000000" stroke="none" 
	d="
M1232.095703,443.074982 
	C1230.105591,444.260712 1228.140869,446.419678 1226.120972,446.472504 
	C1213.965820,446.790405 1201.797729,446.678558 1189.634644,446.596497 
	C1184.540405,446.562134 1182.960083,444.831604 1182.950928,439.475403 
	C1182.915283,418.647522 1182.957886,397.819489 1182.920532,376.991608 
	C1182.905029,368.332458 1182.840698,359.671875 1182.657715,351.014923 
	C1182.418823,339.715118 1174.571167,332.101166 1163.212158,331.997345 
	C1160.379761,331.971466 1157.546387,331.953613 1154.714478,331.999512 
	C1143.291260,332.184601 1135.542725,340.149872 1135.527466,351.847137 
	C1135.490112,380.339752 1135.510864,408.832397 1135.506348,437.325043 
	C1135.505005,445.568451 1134.482666,446.608734 1126.365479,446.615479 
	C1115.368286,446.624634 1104.370972,446.669922 1093.374146,446.614990 
	C1087.458496,446.585419 1086.003296,445.083069 1085.982544,439.176758 
	C1085.881714,410.521271 1085.809937,381.865692 1085.720337,353.210144 
	C1085.677002,339.330383 1078.213867,332.619507 1064.401367,331.820923 
	C1047.376343,330.836578 1037.833374,338.102966 1038.509399,357.716888 
	C1039.409912,383.845917 1038.741089,410.029053 1038.745728,436.188934 
	C1038.747437,445.766357 1037.862305,446.630646 1028.081787,446.629150 
	C1017.584534,446.627563 1007.087158,446.654327 996.590027,446.619843 
	C990.540710,446.599945 988.883179,444.959900 988.881104,438.886963 
	C988.863892,389.899628 988.866577,340.912262 988.883240,291.924927 
	C988.885437,285.643555 990.576355,283.941620 996.884155,283.910889 
	C1008.047668,283.856476 1019.211731,283.851990 1030.375366,283.888794 
	C1036.813843,283.910004 1038.666504,285.793365 1038.717529,292.255951 
	C1038.761597,297.831329 1038.726685,303.407288 1038.726685,308.983002 
	C1039.185181,309.150604 1039.643555,309.318207 1040.102051,309.485809 
	C1040.951538,308.485779 1041.986572,307.591156 1042.623535,306.470367 
	C1059.264526,277.188385 1095.488159,277.243988 1115.807007,293.598816 
	C1128.372803,303.713043 1126.317627,303.271667 1138.373047,293.685516 
	C1160.372681,276.192017 1195.010132,280.120575 1215.411133,302.139008 
	C1225.009155,312.498047 1230.424561,324.762573 1232.633301,338.843384 
	C1233.000000,339.000000 1233.000000,339.500000 1232.621460,339.960663 
	C1232.193848,374.639191 1232.144775,408.857086 1232.095703,443.074982 
z"/>
<path fill="#B16FA4" opacity="1.000000" stroke="none" 
	d="
M1.907033,433.105530 
	C1.907033,433.105530 1.455894,433.032318 1.227947,433.016174 
	C1.000000,381.979095 1.000000,330.958221 1.000000,279.468658 
	C1.000000,279.000000 1.408119,278.832794 1.718336,279.322876 
	C1.988046,330.910492 1.947539,382.007996 1.907033,433.105530 
z"/>
<path fill="#B16EA6" opacity="1.000000" stroke="none" 
	d="
M1232.321655,443.054688 
	C1232.144775,408.857086 1232.193848,374.639191 1232.621460,340.210663 
	C1233.000000,374.020905 1233.000000,408.041779 1233.000000,442.531342 
	C1233.000000,443.000000 1232.547607,443.034454 1232.321655,443.054688 
z"/>
<path fill="#F9025A" opacity="1.000000" stroke="none" 
	d="
M795.451233,285.554138 
	C798.122009,288.507904 800.542847,291.210175 802.963684,293.912445 
	C803.534790,293.628296 804.105896,293.344147 804.677002,293.059998 
	C804.677002,291.162872 804.676880,289.265717 804.676941,287.368591 
	C804.678894,251.716583 804.680847,216.064575 804.682800,180.412567 
	C804.682800,180.245972 804.678284,180.079239 804.683472,179.912796 
	C804.789917,176.498901 803.842163,172.574814 808.175537,170.923279 
	C812.407776,169.310333 814.557678,172.689148 816.979492,175.085159 
	C824.558777,182.583588 832.076294,190.144455 839.615173,197.683746 
	C878.014832,236.085632 916.394958,274.507080 954.831543,312.872009 
	C961.179077,319.207764 964.462036,326.613617 964.375488,335.650116 
	C964.239868,349.809601 964.245117,363.972473 964.389404,378.131897 
	C964.479553,386.973114 961.425476,394.363525 955.208618,400.566925 
	C936.694702,419.041107 918.219849,437.554565 899.692017,456.014740 
	C894.935486,460.753937 889.165833,463.947357 882.447449,464.089172 
	C866.974243,464.415741 851.488953,464.391357 836.011902,464.217529 
	C828.517456,464.133362 822.191162,460.779572 816.935486,455.537842 
	C798.417175,437.068817 779.905334,418.592957 761.481079,400.030304 
	C755.725952,394.231903 752.819397,387.139557 752.825012,378.869659 
	C752.852356,338.552917 752.784973,298.235931 752.962036,257.919983 
	C752.971985,255.644394 754.411438,251.950470 755.981018,251.459442 
	C758.039795,250.815384 761.580444,251.979279 763.286865,253.614532 
	C774.108887,263.985321 784.600647,274.700775 795.451233,285.554138 
M889.747681,392.917511 
	C892.203186,390.316071 894.658630,387.714600 897.759766,384.926361 
	C908.454590,377.001007 915.362549,367.611389 913.257690,353.048309 
	C912.428406,347.310852 911.558716,342.593231 907.031067,338.671051 
	C902.648315,334.874329 898.801147,330.465118 894.633057,326.413055 
	C890.092712,321.998993 885.739014,321.524078 880.959656,325.786804 
	C876.186157,330.044281 872.051758,335.018188 867.015991,339.951477 
	C865.212646,341.636658 863.282593,343.207947 861.638916,345.036682 
	C859.720703,347.171051 858.208130,347.647980 855.966309,345.275391 
	C851.302124,340.338898 846.496765,335.521088 841.536438,330.882233 
	C829.832947,319.937256 828.820923,320.011017 817.426758,331.354279 
	C803.906860,344.813904 803.686707,344.821472 804.350647,364.164551 
	C804.473450,367.742401 806.939331,371.361603 808.781555,374.709839 
	C809.777771,376.520416 811.747070,377.793213 813.268494,379.317535 
	C825.829468,391.903229 838.351562,404.528046 850.972107,417.053711 
	C854.404846,420.460693 858.661865,422.516785 863.010681,419.177643 
	C866.749268,416.307007 869.769409,412.500610 873.750061,408.917755 
	C878.868469,403.647064 883.986877,398.376373 889.747681,392.917511 
z"/>
<path fill="#520345" opacity="1.000000" stroke="none" 
	d="
M561.854736,414.152832 
	C556.508545,404.268921 553.899841,394.072021 554.099609,383.184509 
	C554.383484,367.711731 553.502747,352.107574 555.218750,336.794830 
	C558.421265,308.217468 584.969421,284.947388 613.808777,284.186401 
	C624.949463,283.892456 636.198059,283.635193 647.232422,284.854675 
	C654.121826,285.616058 660.692505,289.198822 667.429260,291.446320 
	C669.182434,292.031219 671.679199,293.270020 672.654175,292.568390 
	C673.847229,291.709900 674.218445,289.126953 674.223999,287.287476 
	C674.313110,257.632660 674.287354,227.977463 674.287842,198.322372 
	C674.287842,197.156158 673.945251,195.845566 674.361389,194.853561 
	C675.252686,192.728653 676.137939,189.593903 677.762146,189.042633 
	C679.723083,188.377060 683.021667,189.272491 684.728699,190.701691 
	C689.181396,194.429749 693.081055,198.818298 697.202393,202.942352 
	C704.149414,209.893951 711.031250,216.912582 718.070740,223.769348 
	C722.012817,227.609116 723.819275,232.059845 723.813904,237.584717 
	C723.749390,304.558502 723.776428,371.532379 723.769165,438.506226 
	C723.768433,445.150909 722.070129,446.890625 715.637878,446.900177 
	C704.308960,446.916962 692.980042,446.927124 681.651184,446.900024 
	C675.620605,446.885590 674.065430,445.284424 674.040466,439.152496 
	C674.015137,432.916595 674.034851,426.680481 673.132629,419.929138 
	C664.688354,433.004730 654.406067,443.451843 638.864685,445.851776 
	C624.164429,448.121796 609.280640,448.240509 595.003540,442.865234 
	C580.599609,437.442169 569.583862,427.934143 561.854736,414.152832 
M617.870972,399.057281 
	C630.173218,399.251068 642.502991,400.037689 654.769653,399.467316 
	C666.400635,398.926483 672.882812,390.968597 672.897156,379.209656 
	C672.908325,370.051392 672.906433,360.893158 672.898865,351.734894 
	C672.888550,339.260498 665.192139,331.343109 652.825928,331.231903 
	C643.168945,331.145050 633.510071,331.158752 623.852844,331.228485 
	C611.372803,331.318634 603.706360,338.985870 603.584717,351.527924 
	C603.495911,360.685211 603.571045,369.844116 603.568542,379.002289 
	C603.565735,389.118256 607.517151,394.933594 617.870972,399.057281 
z"/>
<path fill="#520344" opacity="1.000000" stroke="none" 
	d="
M330.974121,439.623596 
	C331.240265,445.029877 328.649811,446.938354 323.961761,446.915710 
	C312.136078,446.858582 300.309753,446.939728 288.484009,446.890137 
	C283.274353,446.868286 281.336945,444.925079 281.253265,439.590820 
	C281.153015,433.197662 281.229614,426.801758 281.229614,420.407013 
	C280.737122,420.252289 280.244598,420.097565 279.752106,419.942841 
	C278.955566,420.988403 278.055634,421.971283 277.378082,423.088959 
	C267.673584,439.095917 253.627380,446.996765 234.762222,447.008514 
	C221.144852,447.016968 207.756409,446.558655 195.495834,439.788818 
	C175.184174,428.573395 163.299347,411.469116 161.884232,388.234711 
	C160.954865,372.975586 160.964600,357.567078 161.887833,342.306183 
	C163.888000,309.243896 191.537445,284.035889 224.706406,284.122223 
	C230.532562,284.137360 236.404434,283.803772 242.175522,284.400970 
	C257.071716,285.942352 268.267090,293.630920 276.299530,306.126434 
	C277.322052,307.717102 278.371979,309.290100 279.409180,310.871307 
	C280.016846,310.750214 280.624512,310.629120 281.232178,310.508026 
	C281.232178,306.834869 281.286377,303.160797 281.222900,299.488739 
	C280.927490,282.395996 281.461670,284.099731 296.814331,284.121490 
	C305.642120,284.134003 314.470032,284.095795 323.297760,284.118195 
	C329.457123,284.133820 330.967712,285.633301 330.968903,291.758667 
	C330.978546,340.895081 330.974243,390.031464 330.974121,439.623596 
M223.259552,332.445862 
	C214.884247,336.134613 210.841644,342.474365 211.019958,351.702454 
	C211.199997,361.020508 211.027756,370.344910 211.058685,379.666382 
	C211.098053,391.530548 218.577713,399.393738 230.545364,399.707794 
	C240.525986,399.969696 250.525284,400.003265 260.504333,399.718567 
	C272.865112,399.365906 280.138580,391.690979 280.217743,379.362610 
	C280.279724,369.708649 280.323486,360.052338 280.181976,350.399872 
	C280.016357,339.103333 272.225403,331.447296 260.867432,331.235291 
	C256.707397,331.157623 252.541519,331.109894 248.384109,331.237244 
	C240.259445,331.486206 232.138840,331.867950 223.259552,332.445862 
z"/>
<path fill="#520244" opacity="1.000000" stroke="none" 
	d="
M1.947890,433.469482 
	C1.947539,382.007996 1.988046,330.910492 1.937935,279.343018 
	C4.226608,262.523407 17.395777,251.000702 33.809422,250.992188 
	C73.619995,250.971542 113.430595,250.981018 153.241180,250.986008 
	C160.615555,250.986938 162.947342,254.046051 160.765961,260.997650 
	C157.674576,270.849182 154.340652,280.627258 151.407974,290.524902 
	C149.832138,295.843231 146.716568,297.948456 141.194519,297.918610 
	C113.877602,297.771027 86.559418,297.849365 59.241699,297.864441 
	C52.517147,297.868134 51.080795,299.323700 51.071915,306.069794 
	C51.058315,316.397217 51.054169,326.724701 51.073586,337.052094 
	C51.086224,343.775269 52.627949,345.360657 59.249435,345.365753 
	C80.404007,345.382050 101.558609,345.351105 122.713165,345.370911 
	C130.320465,345.378021 132.627045,348.516174 130.368057,355.787537 
	C127.257477,365.800079 124.001419,375.768066 120.963783,385.802368 
	C119.554977,390.456116 116.769051,392.523315 111.830498,392.483917 
	C94.508186,392.345764 77.184052,392.424744 59.860626,392.441467 
	C52.590862,392.448517 51.071808,393.970093 51.068665,401.224792 
	C51.058704,424.211670 51.045486,447.198547 51.085381,470.185364 
	C51.091072,473.464233 51.097843,476.616180 47.379536,478.076111 
	C43.750797,479.500824 41.404850,477.420746 39.085815,475.093903 
	C28.740313,464.713654 18.220488,454.501282 8.096479,443.910095 
	C5.446691,441.138031 3.992204,437.223358 1.947890,433.469482 
z"/>
<path fill="#530445" opacity="1.000000" stroke="none" 
	d="
M415.924194,354.222534 
	C415.924591,382.359924 415.930054,410.024384 415.921082,437.688873 
	C415.918610,445.344086 414.596130,446.627625 406.858856,446.627625 
	C395.859711,446.627594 384.860565,446.648132 373.861481,446.622345 
	C367.909668,446.608398 366.052155,444.849121 366.048401,438.904266 
	C366.017456,389.908142 366.020111,340.911987 366.043671,291.915863 
	C366.046570,285.880341 367.807892,284.147400 373.726440,284.132294 
	C385.225433,284.102905 396.724640,284.092377 408.223633,284.124420 
	C414.261505,284.141266 415.860413,285.769257 415.915375,291.859344 
	C415.957489,296.525208 415.884430,301.192169 415.932831,305.857941 
	C415.948822,307.403015 416.183685,308.945801 416.399994,311.423065 
	C417.931641,310.012024 418.831726,309.509369 419.257538,308.743164 
	C432.668121,284.611053 457.048401,279.802063 481.630463,286.728363 
	C508.347595,294.256256 526.656982,318.800079 526.783936,346.633942 
	C526.923706,377.297546 526.825378,407.962280 526.803101,438.626526 
	C526.798401,445.022644 525.195251,446.606750 518.860107,446.617981 
	C507.527710,446.638092 496.195190,446.646637 484.862885,446.608948 
	C478.615021,446.588165 477.213226,445.182343 477.192657,438.960052 
	C477.099701,410.799408 477.024658,382.638702 476.956360,354.477966 
	C476.922943,340.698669 469.439240,333.252167 455.553711,333.232910 
	C449.220886,333.224121 442.887848,333.201172 436.555237,333.238800 
	C423.672821,333.315399 416.209564,340.752594 415.924194,354.222534 
z"/>
<path fill="#FC9529" opacity="1.000000" stroke="none" 
	d="
M873.107239,409.108002 
	C869.769409,412.500610 866.749268,416.307007 863.010681,419.177643 
	C858.661865,422.516785 854.404846,420.460693 850.972107,417.053711 
	C838.351562,404.528046 825.829468,391.903229 813.268494,379.317535 
	C811.747070,377.793213 809.777771,376.520416 808.781555,374.709839 
	C806.939331,371.361603 804.473450,367.742401 804.350647,364.164551 
	C803.686707,344.821472 803.906860,344.813904 817.426758,331.354279 
	C828.820923,320.011017 829.832947,319.937256 841.536438,330.882233 
	C846.496765,335.521088 851.302124,340.338898 855.966309,345.275391 
	C858.208130,347.647980 859.720703,347.171051 861.638916,345.036682 
	C863.282593,343.207947 865.212646,341.636658 867.441711,339.917419 
	C867.867432,339.883392 868.093323,340.093597 868.014771,340.424438 
	C866.264526,342.537964 864.485474,344.233093 862.943970,346.122101 
	C860.003784,349.724976 857.592834,349.815735 854.350830,346.552277 
	C848.030151,340.189850 841.688965,333.842987 835.192688,327.661530 
	C831.107300,323.774109 826.479126,324.328766 822.784119,328.749359 
	C821.408264,330.395294 820.201050,332.283661 818.537170,333.570343 
	C810.276733,339.958099 803.405823,346.909790 805.918091,358.716309 
	C806.291199,360.469604 805.681641,362.430725 806.047363,364.187256 
	C806.528992,366.500061 806.923096,369.266632 808.405884,370.859619 
	C814.675842,377.595154 821.368103,383.935608 827.844421,390.481354 
	C835.640625,398.361176 843.282898,406.395294 851.166321,414.186066 
	C856.718750,419.673248 860.486267,419.504303 866.360474,414.177307 
	C868.430054,412.300629 870.638611,410.577148 872.864563,408.864807 
	C872.945435,408.945862 873.107239,409.108002 873.107239,409.108002 
z"/>
<path fill="#FC9529" opacity="1.000000" stroke="none" 
	d="
M867.752319,339.780701 
	C872.051758,335.018188 876.186157,330.044281 880.959656,325.786804 
	C885.739014,321.524078 890.092712,321.998993 894.633057,326.413055 
	C898.801147,330.465118 902.648315,334.874329 907.031067,338.671051 
	C911.558716,342.593231 912.428406,347.310852 913.257690,353.048309 
	C915.362549,367.611389 908.454590,377.001007 897.355530,384.938416 
	C896.951294,384.950470 896.788513,384.787842 896.895630,384.468231 
	C898.057922,382.880646 899.080750,381.583893 900.174438,380.350037 
	C903.433044,376.674072 908.517395,373.478668 909.587463,369.258484 
	C911.335449,362.364929 910.864441,354.789764 910.491760,347.545258 
	C910.370056,345.178131 907.911255,342.688843 906.042419,340.706879 
	C902.661560,337.121277 898.681946,334.090942 895.381958,330.440430 
	C889.252197,323.659515 885.017578,323.661591 878.660767,330.452454 
	C875.412292,333.922668 871.632812,336.895813 868.093323,340.093628 
	C868.093323,340.093597 867.867432,339.883392 867.752319,339.780701 
z"/>
<path fill="#FC9529" opacity="1.000000" stroke="none" 
	d="
M889.105286,393.105652 
	C883.986877,398.376373 878.868469,403.647064 873.428650,409.012878 
	C873.107239,409.108002 872.945435,408.945862 872.970520,408.546814 
	C878.256775,403.024933 883.517944,397.902039 888.860657,392.860779 
	C888.942200,392.942383 889.105286,393.105652 889.105286,393.105652 
z"/>
<path fill="#FC9529" opacity="1.000000" stroke="none" 
	d="
M897.032715,385.031799 
	C894.658630,387.714600 892.203186,390.316071 889.426514,393.011597 
	C889.105286,393.105652 888.942200,392.942383 888.967285,392.545441 
	C891.591125,389.694946 894.189819,387.241425 896.788513,384.787842 
	C896.788513,384.787842 896.951294,384.950470 897.032715,385.031799 
z"/>
<path fill="#FDFBFC" opacity="1.000000" stroke="none" 
	d="
M617.473206,398.963013 
	C607.517151,394.933594 603.565735,389.118256 603.568542,379.002289 
	C603.571045,369.844116 603.495911,360.685211 603.584717,351.527924 
	C603.706360,338.985870 611.372803,331.318634 623.852844,331.228485 
	C633.510071,331.158752 643.168945,331.145050 652.825928,331.231903 
	C665.192139,331.343109 672.888550,339.260498 672.898865,351.734894 
	C672.906433,360.893158 672.908325,370.051392 672.897156,379.209656 
	C672.882812,390.968597 666.400635,398.926483 654.769653,399.467316 
	C642.502991,400.037689 630.173218,399.251068 617.473206,398.963013 
z"/>
<path fill="#FDFBFC" opacity="1.000000" stroke="none" 
	d="
M223.638062,332.320282 
	C232.138840,331.867950 240.259445,331.486206 248.384109,331.237244 
	C252.541519,331.109894 256.707397,331.157623 260.867432,331.235291 
	C272.225403,331.447296 280.016357,339.103333 280.181976,350.399872 
	C280.323486,360.052338 280.279724,369.708649 280.217743,379.362610 
	C280.138580,391.690979 272.865112,399.365906 260.504333,399.718567 
	C250.525284,400.003265 240.525986,399.969696 230.545364,399.707794 
	C218.577713,399.393738 211.098053,391.530548 211.058685,379.666382 
	C211.027756,370.344910 211.199997,361.020508 211.019958,351.702454 
	C210.841644,342.474365 214.884247,336.134613 223.638062,332.320282 
z"/>
<path fill="#FEC502" opacity="1.000000" stroke="none" 
	d="
M896.895630,384.468262 
	C894.189819,387.241425 891.591125,389.694946 888.885742,392.463837 
	C883.517944,397.902039 878.256775,403.024933 872.889648,408.465759 
	C870.638611,410.577148 868.430054,412.300629 866.360474,414.177307 
	C860.486267,419.504303 856.718750,419.673248 851.166321,414.186066 
	C843.282898,406.395294 835.640625,398.361176 827.844421,390.481354 
	C821.368103,383.935608 814.675842,377.595154 808.405884,370.859619 
	C806.923096,369.266632 806.528992,366.500061 806.047363,364.187256 
	C805.681641,362.430725 806.291199,360.469604 805.918091,358.716309 
	C803.405823,346.909790 810.276733,339.958099 818.537170,333.570343 
	C820.201050,332.283661 821.408264,330.395294 822.784119,328.749359 
	C826.479126,324.328766 831.107300,323.774109 835.192688,327.661530 
	C841.688965,333.842987 848.030151,340.189850 854.350830,346.552277 
	C857.592834,349.815735 860.003784,349.724976 862.943970,346.122101 
	C864.485474,344.233093 866.264526,342.537964 868.014771,340.424438 
	C871.632812,336.895813 875.412292,333.922668 878.660767,330.452454 
	C885.017578,323.661591 889.252197,323.659515 895.381958,330.440430 
	C898.681946,334.090942 902.661560,337.121277 906.042419,340.706879 
	C907.911255,342.688843 910.370056,345.178131 910.491760,347.545258 
	C910.864441,354.789764 911.335449,362.364929 909.587463,369.258484 
	C908.517395,373.478668 903.433044,376.674072 900.174438,380.350037 
	C899.080750,381.583893 898.057922,382.880646 896.895630,384.468262 
z"/>
</svg>